<?xml version="1.0" encoding="UTF-8"?>
<svg width="0" height="0" style="position:absolute" aria-hidden="true" xmlns="http://www.w3.org/2000/svg">
  <symbol id="pig" viewBox="0 0 24 24">
    <path d="M5 10c0-3 2.7-5 6.5-5 3 0 5.5 1.3 6.2 3.4.8-.3 1.6-.4 2.3-.4-.6 1-.9 2-.9 3.1 0 2.6-1.4 5.9-7.6 5.9S5 13.5 5 10z" fill="currentColor"/>
    <circle cx="9" cy="10" r="1" fill="#fff"/>
  </symbol>
  <symbol id="roast" viewBox="0 0 24 24">
    <path d="M4 14c0-3 3.5-5 8-5s8 2 8 5v1H4v-1z" fill="currentColor"/>
    <path d="M9 9c0-1 .8-2 2-2s2 1 2 2" stroke="currentColor" stroke-width="2" fill="none" stroke-linecap="round"/>
  </symbol>
  <symbol id="chicken" viewBox="0 0 24 24">
    <path d="M6 13c0-3 2.5-5 6-5 3 0 6 2 6 5s-3 5-6 5-6-2-6-5z" fill="currentColor"/>
    <circle cx="18.5" cy="8.5" r="1.5" fill="currentColor"/>
  </symbol>
  <symbol id="fish" viewBox="0 0 24 24">
    <path d="M3 12s3-3 7-3 7 3 7 3-3 3-7 3-7-3-7-3z" fill="currentColor"/>
    <circle cx="10" cy="12" r="1" fill="#fff"/>
  </symbol>
  <symbol id="leaf" viewBox="0 0 24 24">
    <path d="M5 14c0-4 4-8 9-8 2 0 3 .5 5 1.5C18 14 12 18 8 18c-2 0-3-1.5-3-4z" fill="currentColor"/>
  </symbol>
  <!-- meta -->
  <symbol id="timer" viewBox="0 0 24 24">
    <circle cx="12" cy="13" r="8" fill="none" stroke="currentColor" stroke-width="2"/>
    <path d="M12 10v3l2 2" stroke="currentColor" stroke-width="2" fill="none" stroke-linecap="round"/>
    <rect x="9" y="3" width="6" height="2" rx="1" fill="currentColor"/>
  </symbol>
  <symbol id="thermo" viewBox="0 0 24 24">
    <path d="M14 14.5V6a2 2 0 0 0-4 0v8.5a4 4 0 1 0 4 0z" fill="none" stroke="currentColor" stroke-width="2"/>
  </symbol>
  <symbol id="star" viewBox="0 0 24 24">
    <path d="m12 17-5.5 3 1.5-6.2L3 9.5l6.3-.6L12 3l2.7 5.9 6.3.6-5 4.3L17.5 20z" fill="none" stroke="currentColor" stroke-width="2" stroke-linejoin="round"/>
  </symbol>
</svg>
